<?xml version="1.0" encoding="UTF-8"?>
<svg xmlns="http://www.w3.org/2000/svg" viewBox="157.8281 323.6826 270.9096 62.3750" width="270.9096" height="62.3750">
  <g fill="rgb(92.549133%, 13.33313%, 15.293884%)" fill-opacity="1">
    <g transform="translate(159.7969, 380.9326)"><path d="M 20.46875 1.125 C 35.03125 1.125 42.375 -4.71875 42.375 -16.421875 C 42.375 -25.796875 38.03125 -29.84375 28.34375 -32.625 L 25.5 -33.453125 C 20.84375 -34.796875 19.28125 -35.40625 19.28125 -37.5 C 19.28125 -39.453125 20.921875 -40.203125 24.828125 -40.203125 C 29.921875 -40.203125 34.28125 -39 38.46875 -37.578125 L 38.546875 -37.578125 L 40.875 -50.328125 C 36.59375 -52.046875 30.59375 -53.25 24.15625 -53.25 C 9.59375 -53.25 2.703125 -46.953125 2.703125 -36.671875 C 2.703125 -27.96875 6.375 -23.328125 15.296875 -20.546875 L 18.671875 -19.5 C 24.078125 -17.84375 25.578125 -17.25 25.578125 -15.21875 C 25.578125 -13.421875 24.15625 -12.59375 20.09375 -12.59375 C 14.625 -12.59375 9.15625 -14.03125 4.578125 -15.96875 L 4.5 -15.96875 L 2.03125 -2.46875 C 6.53125 -0.375 13.71875 1.125 20.46875 1.125 Z M 20.46875 1.125 "/></g>
  </g>
  <g fill="rgb(100%, 100%, 100%)" fill-opacity="1">
    <g transform="translate(203.7471, 379.9326)"><path d="M 27.375 0.984375 C 32.265625 0.984375 35.703125 0.28125 39.0625 -1.46875 L 40.25 -10.015625 L 40.1875 -10.015625 C 36.40625 -8.40625 32.546875 -7.84375 29.046875 -7.84375 C 19.25 -7.84375 13.71875 -14.0625 13.71875 -23.59375 L 13.71875 -24.4375 C 13.71875 -35.34375 20.15625 -41.015625 28.5625 -41.015625 C 32.0625 -41.015625 35.84375 -40.046875 38.640625 -38.359375 L 38.703125 -38.359375 L 40.390625 -46.6875 C 37.9375 -48.09375 33.53125 -49.625 27.375 -49.625 C 12.8125 -49.625 3.078125 -39.6875 3.078125 -23.65625 C 3.078125 -8.546875 12.3125 0.984375 27.375 0.984375 Z M 27.375 0.984375 "/></g>
    <g transform="translate(247.0071, 379.9326)"><path d="M 27.578125 -23.734375 L 27.578125 0 L 37.3125 0 L 37.3125 -25.484375 C 37.3125 -33.953125 32.90625 -37.734375 25.96875 -37.734375 C 21.28125 -37.734375 17.078125 -35.421875 13.9375 -32.34375 L 13.71875 -32.34375 L 13.71875 -51.65625 L 3.984375 -50.265625 L 3.984375 0 L 13.71875 0 L 13.71875 -26.1875 C 16.03125 -28.421875 18.828125 -29.8125 21.703125 -29.8125 C 25.40625 -29.8125 27.578125 -28 27.578125 -23.734375 Z M 27.578125 -23.734375 "/></g>
    <g transform="translate(288.3071, 379.9326)"><path d="M 14.703125 0.90625 C 19.25 0.90625 23.03125 -0.703125 25.40625 -4.265625 L 25.6875 -4.265625 L 26.390625 0 L 35.90625 0 L 34.4375 -9.515625 L 34.4375 -24.5625 C 34.4375 -33.390625 29.6875 -37.734375 18.90625 -37.734375 C 14.203125 -37.734375 9.65625 -36.953125 6.15625 -35.703125 L 5.3125 -27.796875 L 5.390625 -27.796875 C 9.171875 -29.265625 13.296875 -30.234375 17.078125 -30.234375 C 22.6875 -30.234375 24.921875 -28.203125 24.921875 -23.734375 L 24.921875 -23.171875 L 17.296875 -22.8125 C 7.34375 -22.40625 2.796875 -18.0625 2.796875 -10.703125 C 2.796875 -3.921875 6.65625 0.90625 14.703125 0.90625 Z M 12.53125 -10.84375 L 12.53125 -11.34375 C 12.53125 -14.625 14.34375 -16.59375 21.28125 -16.9375 L 24.921875 -17.15625 L 24.921875 -9.171875 C 22.953125 -6.71875 20.71875 -5.671875 18.34375 -5.671875 C 14.90625 -5.671875 12.53125 -7.625 12.53125 -10.84375 Z M 12.53125 -10.84375 "/></g>
    <g transform="translate(327.3671, 379.9326)"><path d="M 17.78125 0.984375 C 20.859375 0.984375 23.796875 0.28125 25.96875 -0.703125 L 26.390625 -7.984375 L 26.3125 -7.984375 C 25.203125 -7.421875 22.8125 -6.71875 20.859375 -6.71875 C 17.84375 -6.71875 16.3125 -7.90625 16.3125 -12.25 L 16.3125 -29.40625 L 25.40625 -29.40625 L 25.40625 -36.75 L 16.3125 -36.75 L 16.3125 -46.6875 L 6.578125 -45.21875 L 6.578125 -36.75 L 1.8125 -36.75 L 1.8125 -29.40625 L 6.578125 -29.40625 L 6.578125 -9.9375 C 6.578125 -2.59375 10.5625 0.984375 17.78125 0.984375 Z M 17.78125 0.984375 "/></g>
  </g>
  <g fill="rgb(92.549133%, 13.33313%, 15.293884%)" fill-opacity="1">
    <g transform="translate(355.5071, 379.9326)"><path d="M 3.296875 0 L 12.734375 0 L 12.734375 -9.375 L 3.296875 -9.375 Z M 3.296875 0 "/></g>
    <g transform="translate(371.5371, 379.9326)"><path d="M 14.703125 0.90625 C 19.25 0.90625 23.03125 -0.703125 25.40625 -4.265625 L 25.6875 -4.265625 L 26.390625 0 L 35.90625 0 L 34.4375 -9.515625 L 34.4375 -24.5625 C 34.4375 -33.390625 29.6875 -37.734375 18.90625 -37.734375 C 14.203125 -37.734375 9.65625 -36.953125 6.15625 -35.703125 L 5.3125 -27.796875 L 5.390625 -27.796875 C 9.171875 -29.265625 13.296875 -30.234375 17.078125 -30.234375 C 22.6875 -30.234375 24.921875 -28.203125 24.921875 -23.734375 L 24.921875 -23.171875 L 17.296875 -22.8125 C 7.34375 -22.40625 2.796875 -18.0625 2.796875 -10.703125 C 2.796875 -3.921875 6.65625 0.90625 14.703125 0.90625 Z M 12.53125 -10.84375 L 12.53125 -11.34375 C 12.53125 -14.625 14.34375 -16.59375 21.28125 -16.9375 L 24.921875 -17.15625 L 24.921875 -9.171875 C 22.953125 -6.71875 20.71875 -5.671875 18.34375 -5.671875 C 14.90625 -5.671875 12.53125 -7.625 12.53125 -10.84375 Z M 12.53125 -10.84375 "/></g>
    <g transform="translate(410.5971, 379.9326)"><path d="M 4.203125 0 L 13.9375 0 L 13.9375 -37.234375 L 4.203125 -36.1875 Z M 3.921875 -41.4375 L 14.140625 -41.4375 L 14.140625 -49.28125 L 3.921875 -49.28125 Z M 3.921875 -41.4375 "/></g>
  </g>
</svg>
